<svg width="63" height="63" fill="none" xmlns="http://www.w3.org/2000/svg"><g clip-path="url('#clip0_6_292')" fill="#AECC53"><path d="M14.074 23.122h-2.01c0 .553-.452 1.005-1.006 1.005a1.007 1.007 0 0 1-1.005-1.005H8.042a3.017 3.017 0 0 0 6.032 0ZM34.179 15.08h-2.01c0 .554-.452 1.005-1.006 1.005a1.007 1.007 0 0 1-1.005-1.005h-2.01a3.017 3.017 0 0 0 6.03 0Z"/><path d="M53.197 14.075c-.758 0-1.52.18-2.199.518l-.499.252a11.829 11.829 0 0 1-5.262 1.24H44.23v2.011c-.353 0-.69.059-1.02.15a6.63 6.63 0 0 0 .016-.488c0-1.378-.31-2.1-.586-2.74a6.667 6.667 0 0 1-.24-.637c.625-2.517 2.899-4.327 5.518-4.327h6.7a5.705 5.705 0 0 1 5.697 5.698c0 .914-.22 1.802-.632 2.603a3.928 3.928 0 0 0-1.378-.259h-.157a4.899 4.899 0 0 0-.668-1.543l-.193-.29a4.91 4.91 0 0 0-4.091-2.188Zm3.098 10.052a4.024 4.024 0 0 1-4.021 4.022h-2.01a4.024 4.024 0 0 1-4.022-4.022v-6.066a13.819 13.819 0 0 0 5.157-1.422l.498-.247c1.272-.636 2.93-.197 3.719.985l.192.291c.318.479.487 1.037.487 1.61v4.85Zm0 11.058v3.017h-5.026a3.007 3.007 0 0 0-2.635 1.578l-1.249-.624a9.181 9.181 0 0 0-1.143-.468v-3.503a5.031 5.031 0 0 1 5.027-5.026 5.03 5.03 0 0 1 5.026 5.026Zm4.02 23.122H51.27a1.007 1.007 0 0 1-1.006-1.006V41.217c0-.554.452-1.005 1.006-1.005h9.047v18.095Zm-16.507 0h-.581V57.3a3.016 3.016 0 0 0-3.016-3.015 2.99 2.99 0 0 0-2.01.785 2.991 2.991 0 0 0-2.011-.785c-.774 0-1.477.302-2.011.785a2.99 2.99 0 0 0-2.01-.785c-.774 0-1.477.302-2.011.785a2.99 2.99 0 0 0-2.01-.785 3.013 3.013 0 0 0-2.82 1.978 1.484 1.484 0 0 1-1.202-1.476c0-.204.06-.4.146-.585a3.59 3.59 0 0 0 .82-.282l5.518-2.757-.904-1.798-5.513 2.756c-.2.102-.42.153-.644.153-.789 0-1.433-.644-1.433-1.508 0-.204.059-.4.145-.59.283-.058.561-.148.82-.278l5.518-2.756-.903-1.8-5.513 2.758c-.2.102-.42.153-.66.153a1.42 1.42 0 0 1-1.418-1.418c0-.57.338-1.08.86-1.303l5.341-2.29 7.81.601a5.677 5.677 0 0 0 4.28-1.488 5.727 5.727 0 0 0 1.438-2.144h3.502c1.089 0 2.176.255 3.15.742l1.767.884v14.925l-.542.362a7.013 7.013 0 0 1-3.903 1.182Zm-2.592 1.005c0 .553-.452 1.005-1.005 1.005a1.007 1.007 0 0 1-1.006-1.005v-2.01c0-.554.452-1.006 1.006-1.006.553 0 1.005.452 1.005 1.005v2.011Zm-5.026 1.005a1.007 1.007 0 0 1-1.006-1.005v-2.01c0-.554.452-1.006 1.006-1.006.553 0 1.005.452 1.005 1.005v2.011c0 .553-.452 1.005-1.005 1.005Zm-4.021 0a1.007 1.007 0 0 1-1.006-1.005v-2.01c0-.554.452-1.006 1.006-1.006.553 0 1.005.452 1.005 1.005v2.011c0 .553-.452 1.005-1.005 1.005Zm-4.021 0a1.007 1.007 0 0 1-1.006-1.005v-2.01c0-.554.452-1.006 1.006-1.006.553 0 1.005.452 1.005 1.005v2.011c0 .553-.452 1.005-1.005 1.005ZM17.03 57.804l-2.956-1.182V41.7l2.446-1.956a7.04 7.04 0 0 1 4.395-1.542H38.2a3.614 3.614 0 0 1-1.17 2.678 3.612 3.612 0 0 1-2.76.962l-8.302-.64-5.796 2.485a3.419 3.419 0 0 0-2.077 3.15 3.43 3.43 0 0 0 2.113 3.16c-.06.272-.103.55-.103.845 0 1.426.876 2.654 2.117 3.176a3.7 3.7 0 0 0-.106.845c0 1.75 1.32 3.185 3.016 3.4v.044h-5.49c-.895 0-1.775-.17-2.612-.503Zm-4.967-.503c0 .554-.451 1.006-1.005 1.006H2.011V40.212h9.047c.554 0 1.005.451 1.005 1.005v16.084ZM6.032 35.185a5.03 5.03 0 0 1 5.026-5.026 5.031 5.031 0 0 1 5.026 5.026v2.412a9.9 9.9 0 0 0-.82.577l-1.704 1.362a3.012 3.012 0 0 0-2.502-1.334H6.032v-3.017Zm4.02-7.036a4.024 4.024 0 0 1-4.02-4.022v-6.09a8.201 8.201 0 0 0 4.853-2.368l.173-.173.173.173a8.2 8.2 0 0 0 4.853 2.368v6.09a4.024 4.024 0 0 1-4.02 4.022h-2.011ZM5.027 16.085H4.021v2.011c-.538 0-1.048.11-1.52.302l-.196-.593a5.618 5.618 0 0 1-.294-1.802v-.251a5.705 5.705 0 0 1 5.697-5.698h6.7c2.615 0 4.893 1.81 5.517 4.327-.067.22-.15.42-.24.637-.275.64-.585 1.362-.585 2.74 0 .173.004.334.016.487a3.846 3.846 0 0 0-1.02-.149v-2.01H17.09a6.23 6.23 0 0 1-4.437-1.838l-1.595-1.594-1.594 1.594a6.232 6.232 0 0 1-4.438 1.837Zm-3.015 6.032c0-1.107.903-2.01 2.01-2.01v4.02a2.014 2.014 0 0 1-2.01-2.01ZM22.116 11.06c0-4.987 4.06-9.047 9.047-9.047 4.988 0 9.048 4.06 9.048 9.047v2.011c0 1.378.31 2.1.585 2.74.235.55.42.982.42 1.948s-.185 1.402-.42 1.952c-.185.424-.381.892-.49 1.563-.013.043-.017.09-.025.137a7.562 7.562 0 0 0-.058.577c0 .044-.012.087-.012.13 0 .023.008.047.008.075a4.733 4.733 0 0 0-.008.259c0 .84.2 1.539.628 2.203.255.396.098.782.02.927-.15.27-.467.557-.927.557h-1.814a7.013 7.013 0 0 0-2.989-4.802 6.036 6.036 0 0 0 3.072-5.25v-5.572a4.034 4.034 0 0 0-3.229-3.943l-1.249-.252a5.959 5.959 0 0 0 .456-2.297h-2.01a4.024 4.024 0 0 1-4.021 4.02h-1.006a3.017 3.017 0 0 0-3.016 3.017v5.026a6.036 6.036 0 0 0 3.071 5.25 7.013 7.013 0 0 0-2.988 4.803h-1.814c-.46 0-.778-.286-.927-.557-.078-.145-.236-.531.02-.927.428-.664.628-1.363.628-2.203a4.73 4.73 0 0 0-.008-.26c0-.027.008-.05.008-.074 0-.043-.012-.086-.012-.13a7.562 7.562 0 0 0-.058-.577c-.009-.047-.013-.094-.025-.137-.11-.671-.305-1.139-.49-1.563-.235-.55-.42-.986-.42-1.952 0-.965.184-1.398.42-1.948.275-.64.585-1.362.585-2.74v-2.01Zm22.115 13.068a2.006 2.006 0 0 1-1.998-1.896c.008-.224.024-.424.055-.6a2.009 2.009 0 0 1 1.944-1.525v4.021Zm-16.472-.66c.384 1.528 1.759 2.671 3.404 2.671 1.646 0 3.02-1.143 3.405-2.67a5.002 5.002 0 0 1 1.622 3.675v9.048H26.137v-9.048c0-1.457.632-2.756 1.622-3.675Zm4.912-.847a1.508 1.508 0 0 1-3.016 0c0-.087.016-.17.032-.256a4.96 4.96 0 0 1 1.476-.247c.519 0 1.01.102 1.477.247.016.087.031.17.031.256Zm-2.513-2.514a4.024 4.024 0 0 1-4.021-4.02v-5.027c0-.554.452-1.005 1.005-1.005h1.006c1.74 0 3.306-.738 4.41-1.92l2.018.408a2.018 2.018 0 0 1 1.614 1.972v5.571a4.024 4.024 0 0 1-4.021 4.021h-2.011ZM17.74 26.138h.354c.479 0 .93-.098 1.354-.25.063.222.138.442.256.654a3.066 3.066 0 0 0 2.69 1.607h1.731v8.042h-3.211c-.963 0-1.913.16-2.82.459v-1.465c0-2.41-1.222-4.54-3.07-5.808a6.042 6.042 0 0 0 2.716-3.239Zm.354-6.032c.938 0 1.728.653 1.943 1.524.032.177.048.377.055.6a2.006 2.006 0 0 1-1.998 1.897v-4.02Zm26.136 18.147a9.622 9.622 0 0 0-.895-.051h-3.125c0-1.108-.904-2.011-2.01-2.011v-8.042h1.73c1.12 0 2.153-.617 2.69-1.607.119-.212.193-.432.256-.655a3.98 3.98 0 0 0 1.354.251h.354a6.041 6.041 0 0 0 2.718 3.24 7.039 7.039 0 0 0-3.072 5.807v3.068Zm14.075-14.126v-4.02c1.107 0 2.01.903 2.01 2.01 0 1.107-.903 2.01-2.01 2.01Zm-.354 2.011h.354a4.024 4.024 0 0 0 4.02-4.02 3.984 3.984 0 0 0-.993-2.616 7.666 7.666 0 0 0 .994-3.75c0-4.253-3.456-7.71-7.709-7.71H47.92a7.726 7.726 0 0 0-5.72 2.553C41.954 4.713 37.104.002 31.162.002 25.222.001 20.372 4.717 20.13 10.6a7.723 7.723 0 0 0-5.722-2.556H7.708C3.456 8.043 0 11.499 0 15.752v.25c0 .83.134 1.65.397 2.44L.82 19.71C.314 20.385 0 21.21 0 22.117a4.024 4.024 0 0 0 4.02 4.021h.355a6.042 6.042 0 0 0 2.717 3.24 7.028 7.028 0 0 0-3.071 5.807v3.017H0v22.115h11.058a3.014 3.014 0 0 0 2.682-1.664l2.544 1.016a9.018 9.018 0 0 0 3.358.648h5.674a3.015 3.015 0 0 0 2.832 2.01 2.99 2.99 0 0 0 2.01-.785 2.991 2.991 0 0 0 2.01.786c.774 0 1.477-.302 2.01-.786a2.993 2.993 0 0 0 2.012.786c.774 0 1.476-.302 2.01-.786a2.989 2.989 0 0 0 2.01.786 3.015 3.015 0 0 0 2.832-2.011h.766a9.033 9.033 0 0 0 4.897-1.449 3.008 3.008 0 0 0 2.564 1.449h11.058V38.202h-4.021v-3.017c0-2.41-1.221-4.54-3.071-5.808a6.041 6.041 0 0 0 2.717-3.239Z"/><path d="M51.268 24.127a1.007 1.007 0 0 1-1.005-1.005h-2.01a3.016 3.016 0 0 0 6.032 0h-2.011c0 .553-.452 1.005-1.006 1.005Z"/></g><defs><clipPath id="clip0_6_292"><path fill="#fff" transform="translate(0 .001)" d="M0 0h62.93v62.93H0z"/></clipPath></defs></svg>