<svg width="63" height="63" fill="none" xmlns="http://www.w3.org/2000/svg"><g clip-path="url('#clip0_6_300')" fill="#AECC53"><path d="m26.243 18.11 2.245 26.127h-1.364l-3.825-26.128h2.944Zm-1.352-8.536c-.432-.134-1.069-.33-1.47-.514.401-.189 1.038-.385 1.47-.519 1.262-.388 2.35-.722 2.815-1.542.48-.833.204-2.034-.08-3.307-.09-.388-.215-.942-.27-1.37.314.252.691.61.959.86.967.91 1.878 1.771 2.877 1.771.998 0 1.91-.86 2.877-1.77.268-.252.644-.61.96-.86-.056.428-.181.981-.272 1.37-.283 1.272-.558 2.473-.079 3.306.464.82 1.553 1.154 2.815 1.542.432.134 1.068.33 1.47.519-.402.184-1.038.38-1.47.514-1.262.389-2.351.722-2.815 1.543-.48.836-.204 2.033.079 3.305.09.39.216.947.271 1.371-.315-.252-.691-.608-.96-.86-.965-.907-1.878-1.767-2.876-1.767-.999 0-1.91.856-2.877 1.767-.268.252-.645.608-.959.86.055-.428.18-.981.27-1.37.284-1.273.56-2.47.08-3.306-.464-.82-1.553-1.154-2.815-1.543Zm14.194 8.536L35.26 44.236h-1.018l1.91-26.128h2.932Zm-9.072-2.011c.44-.408.963-.876 1.144-.927.24.051.77.519 1.21.927h-2.354Zm4.12 2.01-1.908 26.128h-1.717l-2.244-26.128h5.868Zm4.103 28.138c.553 0 1.006.448 1.006 1.005v1.005h-16.1v-1.005c0-.557.452-1.005 1.006-1.005h14.088ZM25.324 16.1h-4.351l4.115 28.138h-.94a3.018 3.018 0 0 0-3.018 3.015v3.016h20.124v-3.016a3.017 3.017 0 0 0-3.018-3.015h-.94l4.115-28.138h-4.35c-.013-.655-.174-1.39-.339-2.12-.138-.604-.366-1.621-.33-1.822.196-.204 1.132-.49 1.694-.663 1.486-.456 3.168-.977 3.168-2.434 0-1.46-1.682-1.979-3.168-2.439-.562-.172-1.498-.459-1.643-.576-.087-.287.141-1.304.28-1.909.352-1.574.722-3.2-.488-3.914-1.203-.702-2.394.413-3.546 1.496-.46.436-1.234 1.162-1.462 1.225-.298-.063-1.073-.789-1.532-1.225C28.543.635 27.352-.484 26.153.222c-1.215.715-.845 2.34-.492 3.914.138.605.366 1.622.33 1.826-.195.2-1.131.487-1.693.66-1.486.46-3.168.977-3.168 2.438 0 1.457 1.682 1.974 3.168 2.434.562.173 1.498.46 1.643.577.087.287-.142 1.303-.28 1.908-.164.73-.325 1.465-.338 2.12Z"/><path d="M31.192 8.054a1.005 1.005 0 1 1 .002 2.01 1.005 1.005 0 0 1-.002-2.01Zm0 4.02A3.02 3.02 0 0 0 34.21 9.06a3.018 3.018 0 0 0-3.02-3.016 3.018 3.018 0 0 0-3.018 3.016 3.02 3.02 0 0 0 3.019 3.015ZM57.035 43.915a4.967 4.967 0 0 0-.409.13l-.165-2.894a5.01 5.01 0 0 1 1.52-3.895 7.09 7.09 0 0 0 .654-.53 4.933 4.933 0 0 1 1.56-.722l.169 2.909c.13 2.274-1.29 4.268-3.329 5.002Zm1.54 4.562c-.747 2.14-2.806 3.443-4.964 3.349a5.654 5.654 0 0 0-.452-.04l.956-2.736a5.013 5.013 0 0 1 2.924-3.022c.24-.064.471-.13.703-.213a4.888 4.888 0 0 1 1.793-.09l-.96 2.752Zm-5.314 8.146a5.05 5.05 0 0 1-6.289 1.002l1.942-2.176a5.043 5.043 0 0 1 6.285-1l-1.938 2.174Zm-7.79-.333a5.03 5.03 0 0 1-.99-2.72 4.988 4.988 0 0 1 1.27-3.633l1.94-2.179a5.03 5.03 0 0 1 .992 2.721 4.971 4.971 0 0 1-1.27 3.632l-1.941 2.179Zm4.984-15.924a5.332 5.332 0 0 1-.137-.876l-.166-2.909a5.027 5.027 0 0 1 4.3 4.684l.012.185.204 3.607c-.11.079-.212.169-.314.256a6.993 6.993 0 0 0-3.9-4.947Zm-1.588 5.665a4.35 4.35 0 0 1 .208-.864l.96-2.752a4.988 4.988 0 0 1 1.957 2.132 4.975 4.975 0 0 1 .22 3.84l-1.25 3.588c-.133.032-.259.075-.389.114a7.2 7.2 0 0 0 .118-1.724 6.967 6.967 0 0 0-1.824-4.334Zm-.845-14.887a5.029 5.029 0 0 1 5.766 2.68c.004 0 .004.005.004.005l1.65 3.42c-.066.117-.13.239-.192.356a7.033 7.033 0 0 0-1.135-1.303 6.966 6.966 0 0 0-4.36-1.778 4.9 4.9 0 0 1-.463-.754l-1.27-2.626Zm-1.152-1.748a4.843 4.843 0 0 1-.719-.521l-2.178-1.94a5.02 5.02 0 0 1 2.725-.99 5.027 5.027 0 0 1 3.635 1.268l2.838 2.525c-.02.134-.031.27-.043.404a7.004 7.004 0 0 0-6.257-.746Zm3.801-9.96 2.178 1.94c1.702 1.511 2.11 3.921 1.187 5.885a6.856 6.856 0 0 0-.197.38l-2.165-1.927a5.032 5.032 0 0 1-1.003-6.278Zm4.85 9.336c.146-.235.276-.479.39-.73.31-.48.703-.911 1.17-1.268l1.27 2.622a4.992 4.992 0 0 1 .225 3.84 5.005 5.005 0 0 1-1.305 1.994c-.138.106-.272.22-.405.334l-1.262-2.607c0-.003-.004-.007-.004-.007a5.007 5.007 0 0 1-.078-4.178ZM16.913 56.29l-1.941-2.18a4.97 4.97 0 0 1-1.27-3.63c.06-.998.405-1.936.99-2.722l1.943 2.18a4.99 4.99 0 0 1 1.269 3.631 5.03 5.03 0 0 1-.991 2.721Zm-7.79.333L7.18 54.45a5.054 5.054 0 0 1 6.29 1l1.941 2.176a5.045 5.045 0 0 1-6.289-1.002Zm-5.314-8.15-.96-2.748a4.883 4.883 0 0 1 1.793.09c.232.083.464.153.704.213a5.013 5.013 0 0 1 2.924 3.022l.558 1.59.398 1.147c-.139.008-.28.015-.422.035-2.165.106-4.244-1.198-4.995-3.35Zm-1.62-12.47c.566.15 1.093.397 1.565.723.2.188.42.365.649.53a5.01 5.01 0 0 1 1.52 3.895l-.164 2.893c-.13-.043-.264-.09-.397-.125-2.048-.73-3.47-2.729-3.341-5.006l.168-2.91Zm1.844-6.607 1.27-2.622c.479.36.876.816 1.194 1.327.099.212.213.42.334.62.06.13.122.26.17.397a4.974 4.974 0 0 1-.22 3.84l-1.262 2.606a5.252 5.252 0 0 0-.41-.334 5.004 5.004 0 0 1-1.296-1.994 4.97 4.97 0 0 1 .22-3.84Zm4.548 14.28a7.071 7.071 0 0 0-.55 1.637c-.107-.087-.209-.177-.315-.256l.216-3.792a4.99 4.99 0 0 1 1.679-3.463 4.996 4.996 0 0 1 2.621-1.22l-.165 2.908c-.02.295-.07.589-.138.876a6.988 6.988 0 0 0-3.348 3.31Zm3.23 8.413c-.13-.039-.255-.082-.389-.114l-1.25-3.588a4.971 4.971 0 0 1 .22-3.84 4.99 4.99 0 0 1 1.958-2.132l.96 2.752c.101.283.164.574.207.864a6.976 6.976 0 0 0-1.705 6.058Zm-3.219-18.26a5.01 5.01 0 0 1 2.874-2.56 4.996 4.996 0 0 1 2.896-.125l-1.27 2.622c-.13.27-.29.522-.463.758-1.62.07-3.14.691-4.36 1.778-.44.389-.812.833-1.135 1.303-.062-.117-.126-.239-.196-.356l1.654-3.42Zm.944-12.454 2.178-1.94a5.03 5.03 0 0 1-.999 6.275l-2.166 1.927c-.07-.145-.141-.294-.223-.431-.893-1.951-.476-4.331 1.21-5.83Zm6.151 4.57a5.02 5.02 0 0 1 2.724.99l-2.178 1.94c-.224.2-.467.369-.719.525a6.981 6.981 0 0 0-4.709-.027 7.115 7.115 0 0 0-1.544.765 6.538 6.538 0 0 0-.044-.4l2.834-2.525a5.029 5.029 0 0 1 3.636-1.267Zm44.902 17.942a7.02 7.02 0 0 0 1.785-5.088l-.288-5.017-1.006.059a7.87 7.87 0 0 0-.61.062s0-.004.005-.004a6.989 6.989 0 0 0-.31-5.378l-2.186-4.523-.908.436c-.184.09-.361.192-.538.294v-.007a6.985 6.985 0 0 0-2.343-4.849l-3.758-3.345-.668.753c-1.705 1.909-2.165 4.5-1.454 6.781a6.983 6.983 0 0 0-6.58 2.222l-.671.75 3.757 3.345c.29.26.61.483.936.69l1.729 3.577c.17.35.377.68.6.994l.229 3.965c.024.393.087.773.173 1.15l-1.309 3.75c-.126.369-.216.75-.279 1.13L44.245 48.6a6.978 6.978 0 0 0-1.773 5.084 6.953 6.953 0 0 0 1.38 3.792c-2.39 1.143-6.906 2.843-12.66 2.843-5.754 0-10.27-1.7-12.66-2.843a6.959 6.959 0 0 0 1.38-3.792 6.976 6.976 0 0 0-1.773-5.084l-2.65-2.964a6.827 6.827 0 0 0-.279-1.131l-1.309-3.75c.087-.38.154-.761.174-1.15l.228-3.965c.223-.314.432-.644.6-.998l1.73-3.572c.326-.208.645-.432.94-.691l3.753-3.345-.672-.75a6.981 6.981 0 0 0-6.58-2.222c.712-2.281.252-4.872-1.454-6.78l-.668-.754-3.757 3.345a6.983 6.983 0 0 0-2.343 4.849v.007a7.095 7.095 0 0 0-.539-.294l-.907-.436-2.186 4.523a6.982 6.982 0 0 0-.31 5.378l.004.004c-.2-.027-.405-.05-.61-.062l-1.006-.06L.012 38.8a7.017 7.017 0 0 0 1.784 5.088c-.201.051-.397.106-.594.173l-.951.33 1.659 4.746a6.99 6.99 0 0 0 3.6 4.017c-.165.122-.33.25-.484.389l-.75.671 3.345 3.75a7.031 7.031 0 0 0 5.262 2.351 7.01 7.01 0 0 0 3.868-1.182l.063.067.232-.204c2.381 1.224 7.44 3.333 14.146 3.333 6.705 0 11.764-2.109 14.146-3.333l.232.204.062-.067a7.01 7.01 0 0 0 3.868 1.182 7.045 7.045 0 0 0 5.263-2.351l3.35-3.75-.756-.671a7.24 7.24 0 0 0-.483-.39 6.991 6.991 0 0 0 3.6-4.016l1.658-4.746-.95-.33a7.653 7.653 0 0 0-.594-.173Z"/></g><defs><clipPath id="clip0_6_300"><path fill="#fff" transform="translate(0 .001)" d="M0 0h62.93v62.93H0z"/></clipPath></defs></svg>