<svg width="63" height="63" fill="none" xmlns="http://www.w3.org/2000/svg"><g clip-path="url('#clip0_6_278')" fill="#AECC53"><path d="M10.053 44.233H8.042v2.011h2.01c.555 0 1.006.452 1.006 1.006v11.058h2.01V47.25a3.016 3.016 0 0 0-3.015-3.017Z"/><path d="m60.292 22.228-3.577 28.619a2.784 2.784 0 0 1-2.756 2.435h-7.717v3.483c0 .404-.502.671-.836.447l-5.898-3.93H21.924c.122-.653.192-1.324.192-2.011h32.169V27.847l-4.022-6.032v-2.713h7.273a2.783 2.783 0 0 1 2.756 3.126Zm-49.234 38.09c-4.987 0-9.047-4.06-9.047-9.047 0-4.988 4.06-9.047 9.047-9.047 4.991 0 9.047 4.06 9.047 9.047 0 4.987-4.056 9.047-9.047 9.047Zm1.029-38.094a2.783 2.783 0 0 1 2.757-3.122h7.272v2.713l-4.02 6.032V42.75a11 11 0 0 0-3.7-2.019l-2.31-18.507ZM48.253 2.013v28.28l-10.355 6.904h-3.416l-10.356-6.903V2.013h24.127Zm2.01 26.938v-3.514l1.623 2.434-1.623 1.08ZM39.9 38.277l12.374-8.25v18.146L39.9 38.277Zm-5.367.93h3.313l12.567 10.054H21.967l12.566-10.054Zm-14.428-9.18 12.374 8.25-11.153 8.918a10.889 10.889 0 0 0-1.22-2.262V30.027Zm.389-2.156 1.622-2.434v3.514l-1.622-1.08Zm37.042-10.779h-7.273V.002H22.116v17.09h-7.272a4.795 4.795 0 0 0-4.756 5.383l2.23 17.817a11.154 11.154 0 0 0-1.26-.08C4.96 40.213 0 45.173 0 51.272c0 6.098 4.96 11.058 11.058 11.058 4.677 0 8.678-2.925 10.288-7.037h17.557l5.388 3.593a2.551 2.551 0 0 0 3.962-2.12v-1.473h5.706a4.8 4.8 0 0 0 4.755-4.198l3.577-28.619a4.794 4.794 0 0 0-4.755-5.383Z"/><path d="M44.231 10.055H28.148V6.034H44.23v4.02Zm2.011-6.032H26.137v8.043h20.105V4.023ZM46.242 14.076H26.137v2.01h20.105v-2.01ZM44.231 20.108h2.011v-2.01h-2.01v2.01ZM42.221 18.098H26.137v2.01H42.22v-2.01ZM46.242 22.118H26.137v2.01h20.105v-2.01ZM46.242 26.139H26.137v2.01h20.105v-2.01ZM30.158 32.171h12.063v-2.01H30.158v2.01Z"/></g><defs><clipPath id="clip0_6_278"><path fill="#fff" transform="translate(0 .002)" d="M0 0h62.93v62.93H0z"/></clipPath></defs></svg>