<svg width="64" height="63" fill="none" xmlns="http://www.w3.org/2000/svg"><g clip-path="url('#clip0_6_264')" fill="#AECC53"><path d="M19.54 43.457c.567 0 1.029-.459 1.029-1.022 0-.562-.462-1.02-1.028-1.02-.567 0-1.03.458-1.03 1.02 0 .563.463 1.022 1.03 1.022ZM25.711 43.457c.567 0 1.028-.459 1.028-1.022 0-.562-.461-1.02-1.028-1.02-.566 0-1.029.458-1.029 1.02 0 .563.463 1.022 1.03 1.022ZM20.46 46.065l-1.84.917.109.212a4.34 4.34 0 0 0 3.897 2.395c1.659 0 3.153-.918 3.896-2.395l.109-.212-1.84-.917-.109.219a2.292 2.292 0 0 1-2.056 1.261 2.292 2.292 0 0 1-2.057-1.261l-.109-.22ZM46.28 51.632c.566 0 1.028-.459 1.028-1.022s-.462-1.021-1.028-1.021c-.567 0-1.03.458-1.03 1.021s.463 1.022 1.03 1.022ZM52.45 49.589c-.566 0-1.028.458-1.028 1.021s.462 1.022 1.029 1.022c.566 0 1.028-.459 1.028-1.022s-.462-1.021-1.029-1.021ZM38.052 25.065c.567 0 1.029-.459 1.029-1.022s-.462-1.022-1.029-1.022c-.566 0-1.028.46-1.028 1.022 0 .563.462 1.022 1.028 1.022ZM44.223 25.065c.566 0 1.028-.459 1.028-1.022s-.462-1.022-1.028-1.022c-.567 0-1.029.46-1.029 1.022 0 .563.462 1.022 1.029 1.022ZM39.08 29.152h4.115v.391c0 .256-.06.511-.177.739a1.652 1.652 0 0 1-1.487.914h-.787a1.652 1.652 0 0 1-1.486-.914 1.628 1.628 0 0 1-.178-.739v-.39Zm-2.056.391c0 .571.136 1.142.393 1.653a3.696 3.696 0 0 0 3.327 2.044h.787a3.695 3.695 0 0 0 3.327-2.044 3.691 3.691 0 0 0 .393-1.653v-2.435h-8.227v2.435ZM47.308 55.72h4.114v.391c0 .255-.06.51-.177.738a1.652 1.652 0 0 1-1.486.914h-.787a1.652 1.652 0 0 1-1.487-.914 1.628 1.628 0 0 1-.177-.738v-.391Zm-2.057.391c0 .57.137 1.142.394 1.652a3.695 3.695 0 0 0 3.327 2.044h.786a3.696 3.696 0 0 0 3.327-2.044c.257-.51.394-1.082.394-1.652v-2.435H45.25v2.435Z"/><path d="M59.65 39.852c0 .562-.462 1.022-1.03 1.022h-1.027V38.83h1.028c.567 0 1.028.459 1.028 1.022Zm-4.114 3.065c0 3.38-2.769 6.13-6.17 6.13-3.404 0-6.171-2.75-6.171-6.13v-6.13c0-.32.152-.627.409-.82l2.676-1.991 3.499 2.607 1.23-1.637-4.73-3.524-3.908 2.913a3.056 3.056 0 0 0-1.149 1.756l-.611-.91a2.963 2.963 0 0 1 1.543-4.466l.743-.247.189-.376a6.378 6.378 0 0 1 5.737-3.524h2.695c3.347 0 6.075 2.71 6.075 6.035 0 .898-.197 1.772-.58 2.574-.244-.347-.541-.662-.919-.886l-4.141-2.467-1.061 1.749 4.146 2.47c.309.184.498.52.498.879v5.995Zm-3.447 8.278c.068.207.165.399.273.582l-.213.212a3.988 3.988 0 0 1-2.784 1.146 3.988 3.988 0 0 1-2.784-1.146l-.213-.212c.108-.183.205-.375.273-.582l.173-.511c.803.26 1.66.407 2.551.407.892 0 1.748-.148 2.551-.407l.173.511Zm-8.26.048a9.954 9.954 0 0 0-6.805 3.816v-2.858c0-5.349-3.672-9.89-8.923-11.052a1.031 1.031 0 0 1-.755-.675l-.297-.894a8.201 8.201 0 0 0 3.531-4.838h1.302c1.703 0 3.085-1.373 3.085-3.065a3.054 3.054 0 0 0-1.475-2.602l.479-.711c.269-.407.474-.846.638-1.297l1.205-.24.768 1.9a3.06 3.06 0 0 0 2.406 1.896 4.979 4.979 0 0 0-.936 2.91c0 .994.294 1.956.848 2.782l.398.59c-1.306.36-2.274 1.538-2.274 2.947a3.076 3.076 0 0 0 3.085 3.065h1.029c0 2.89 1.522 5.428 3.804 6.881l-.25.75c-.128.38-.465.65-.863.695Zm-20.207-5.828 2.479-2.462-.993 3.445-1.486-.983Zm-4.471-2.462 2.478 2.462-1.486.983-.992-3.445Zm3.475-2.08c.892 0 1.747-.148 2.551-.407l.129.387-2.68 2.663-2.68-2.666c.004-.009.008-.017.012-.03l.117-.354c.803.26 1.659.408 2.55.408Zm-6.17-8.174v-4.746c0-.423.252-.794.646-.95l2.952-1.173c.671.57 1.515.945 2.455 1.038l5.36.534c.53.052.927.487.927 1.014v4.283c0 3.38-2.768 6.13-6.17 6.13-3.403 0-6.17-2.75-6.17-6.13Zm-2.058-4.746v.659h-.478l-1.076-1.605a2.964 2.964 0 0 1 1.543-4.466l1.04-.348v-.734a3.076 3.076 0 0 1 3.085-3.066h1.338l1.735-1.149a5.41 5.41 0 0 1 2.997-.894c2.551 0 4.76 1.804 5.263 4.287l.084.415 1.254.83a3.846 3.846 0 0 1 1.076 5.349l-.928 1.38h-.478v-.195c0-1.58-1.193-2.89-2.78-3.05l-5.359-.53a2.368 2.368 0 0 1-2.145-2.355h-2.057c0 .578.108 1.13.314 1.636l-2.487.99a3.046 3.046 0 0 0-1.94 2.846Zm-1.028 4.746c-.567 0-1.029-.46-1.029-1.022 0-.563.462-1.022 1.029-1.022h1.028V32.7H13.37Zm17.483-2.044h1.029c.566 0 1.028.46 1.028 1.022 0 .563-.462 1.022-1.028 1.022h-1.029v-2.044Zm10.719-2.043h-2.126c-.422 0-.8-.252-.956-.643l-.84-2.08c.318-.323.58-.702.727-1.145l.21-.627c.803.26 1.658.408 2.55.408.957 0 1.873-.172 2.729-.472l.783 1.561a8.422 8.422 0 0 0-3.077 2.998Zm-.434 12.262h-1.029c-.566 0-1.029-.46-1.029-1.022 0-.563.463-1.022 1.03-1.022h1.028v2.044Zm0-38.83c5.672 0 10.284 4.583 10.284 10.219v12.262h-2.6c-.779 0-1.542.103-2.269.302l-.847-1.684c2.205-1.469 3.66-3.963 3.66-6.793v-5.995a3.08 3.08 0 0 0-1.5-2.63l-4.141-2.467-1.06 1.748 4.145 2.47c.31.184.498.52.498.879v5.995c0 3.381-2.767 6.13-6.17 6.13s-6.171-2.749-6.171-6.13V10.22c0-.32.153-.627.41-.818l2.675-1.992 3.5 2.607 1.229-1.637-4.729-3.524-3.909 2.913a3.077 3.077 0 0 0-1.233 2.45v6.132c0 2.89 1.523 5.428 3.805 6.881l-.29.866a1.028 1.028 0 0 1-.775.678l-.695.14a5.87 5.87 0 0 0-2.631-4.733l-.559-.371a7.292 7.292 0 0 0-.912-2.044v-5.504c0-5.636 4.612-10.219 10.285-10.219ZM57.593 20.84v-2.447h4.113v5.72c0 2.527-.783 4.99-2.193 7.061a8.052 8.052 0 0 0-3.085-4.993 13.11 13.11 0 0 0 1.165-5.34Zm2.056-8.577c1.133 0 2.057.918 2.057 2.043v2.044h-4.113v-2.044c0-1.125.923-2.043 2.056-2.043ZM2.057 40.873V38.83c0-1.126.924-2.044 2.056-2.044 1.134 0 2.058.918 2.058 2.044v2.044H2.057Zm61.706-16.76v-9.807c0-2.255-1.843-4.087-4.114-4.087-2.27 0-4.113 1.832-4.113 4.087v6.534c0 1.481-.314 2.946-.889 4.307a8.332 8.332 0 0 0-1.169-.375v-12.51c0-6.76-5.535-12.26-12.34-12.26-6.806 0-12.342 5.5-12.342 12.26v3.382a7.466 7.466 0 0 0-4.234-1.338c-1.47 0-2.893.428-4.118 1.238l-1.213.806h-.72a5.142 5.142 0 0 0-5.089 4.367 5.009 5.009 0 0 0-3.137 4.642c0 .993.293 1.955.847 2.782l.627.934a3.054 3.054 0 0 0-1.474 2.602 3.076 3.076 0 0 0 3.085 3.065h1.301a8.192 8.192 0 0 0 3.536 4.838l-.201.595c-.141.419-.535.699-.977.699a10.91 10.91 0 0 0-8.801 4.481V38.83c0-2.256-1.844-4.088-4.115-4.088C1.843 34.742 0 36.574 0 38.83v10.146c0 4.546 3.724 8.246 8.3 8.246a8.275 8.275 0 0 0 5.869-2.415l.23-.227v7.751h2.056V51.514a4.47 4.47 0 0 0-1.33-3.189l-1.454 1.445c.47.467.727 1.086.727 1.744v.176l-1.683 1.672A6.23 6.23 0 0 1 8.3 55.18c-3.443 0-6.243-2.782-6.243-6.203v-6.06h4.114v8.175h2.057V49.32l1.14-1.984a8.842 8.842 0 0 1 7.633-4.415l1.937 6.734 3.688-2.443 3.687 2.444 1.833-6.379c4.037 1.117 6.82 4.714 6.82 8.924v10.131h2.058v-1.249c0-4.008 3.025-7.364 7.034-7.808.253-.028.495-.095.728-.18l.34.34a6.052 6.052 0 0 0 4.24 1.745 6.052 6.052 0 0 0 4.237-1.745l.342-.34c.233.085.474.149.727.18 4.01.444 7.034 3.8 7.034 7.808v1.249h2.057v-1.249c0-5.053-3.812-9.28-8.862-9.839a1.034 1.034 0 0 1-.864-.694l-.253-.751c2.286-1.453 3.809-3.991 3.809-6.881h1.028c1.703 0 3.085-1.373 3.085-3.065 0-1.693-1.382-3.066-3.085-3.066h-.165a8.073 8.073 0 0 0 .952-2.303c2.764-2.73 4.355-6.49 4.355-10.37Z"/></g><defs><clipPath id="clip0_6_264"><path fill="#fff" transform="translate(0 .001)" d="M0 0h64v62.933H0z"/></clipPath></defs></svg>