<svg width="160" height="36" fill="none" xmlns="http://www.w3.org/2000/svg"><g clip-path="url('#clip0_1_3')"><path d="m26.38 1.55-9.651 8.352a3.62 3.62 0 0 0-1.256 2.737v10.743c0 2.008 1.645 3.635 3.673 3.635h19.298c2.029 0 3.673-1.627 3.673-3.635V12.639c0-1.05-.458-2.047-1.256-2.737L31.218 1.55a3.69 3.69 0 0 0-2.42-.9c-.864 0-1.724.301-2.419.9Z" fill="url('#paint0_linear_1_3')"/><path d="M66.146 35.35c-9.282 0-15.458-5.699-15.458-13.885V4.619c0-.453.373-.822.83-.822h6.997c.457 0 .83.369.83.822v15.974c0 4.897 2.645 7.738 6.8 7.738 4.157 0 6.801-2.841 6.801-7.738V4.619c0-.453.373-.822.83-.822h6.997c.457 0 .83.369.83.822v16.846c0 8.186-6.175 13.884-15.457 13.884Zm35.137-25.088a.83.83 0 0 0-.927-.817c-2.51.26-5.25 1.55-6.957 3.77h-.101v-2.523a.827.827 0 0 0-.83-.821h-6.433a.827.827 0 0 0-.83.821v23.362c0 .453.372.822.83.822h6.432c.458 0 .83-.369.83-.822V23.646c0-3.27 2.261-5.664 6.093-5.664.283 0 .736 0 1.233.016a.633.633 0 0 0 .657-.633v-7.103h.003Zm18.417-.867c-2.824 0-5.32 1.047-7.162 3.119h-.126V3.018a.828.828 0 0 0-.831-.822h-6.432a.827.827 0 0 0-.83.822v31.034c0 .453.372.822.83.822h6.005c.457 0 .83-.37.83-.822v-1.874h.126c1.665 2.097 4.085 3.17 7.213 3.17 6.934 0 11.901-5.216 11.901-12.952s-4.993-13.001-11.522-13.001h-.002Zm-2.042 18.915c-3.176 0-5.573-2.32-5.573-5.889 0-3.57 2.321-5.94 5.547-5.94 3.227 0 5.421 2.37 5.421 5.94 0 3.57-2.245 5.89-5.395 5.89Zm41.509-18.44h-6.432a.825.825 0 0 0-.83.822v1.824h-.102c-1.789-2.072-4.236-3.119-6.959-3.119-6.532 0-11.522 5.366-11.522 13.001 0 7.636 4.942 12.951 11.902 12.951 3.026 0 5.395-1.072 7.009-3.168h.102v1.873c0 .453.372.822.83.822h6.005c.457 0 .83-.369.83-.822V10.692a.827.827 0 0 0-.83-.821h-.003Zm-17.678 12.553c0-3.57 2.345-5.94 5.42-5.94 3.075 0 5.32 2.496 5.32 5.94 0 3.445-2.397 5.89-5.345 5.89-3.153 0-5.395-2.372-5.395-5.89ZM28.665 34.876c3.264 0 5.92-2.63 5.92-5.86V16.352c0-1.69-.736-3.299-2.022-4.412l-11.37-9.846C18.971.17 15.62.17 13.397 2.094L2.024 11.938A5.84 5.84 0 0 0 0 16.349v12.665c0 3.237 2.652 5.862 5.922 5.862H28.67M17.295 3.796c.644 0 1.29.224 1.803.668l11.375 9.846c.596.514.936 1.259.936 2.042v12.664c0 1.498-1.226 2.712-2.74 2.712H5.92c-1.512 0-2.738-1.214-2.738-2.712V16.352c0-.781.34-1.526.936-2.042l11.375-9.846a2.759 2.759 0 0 1 1.803-.667Z" fill="#079D56"/></g><defs><linearGradient id="paint0_linear_1_3" x1="18.663" y1="28.042" x2="38.727" y2="7.772" gradientUnits="userSpaceOnUse"><stop stop-color="#FF8B22"/><stop offset="1" stop-color="#FFB81A"/></linearGradient><clipPath id="clip0_1_3"><path fill="#fff" transform="translate(0 .65)" d="M0 0h160v34.699H0z"/></clipPath></defs></svg>